<svg xmlns="http://www.w3.org/2000/svg" width="768" height="432" viewBox="0 0 768 432">
  <defs>
    <filter id="window-shadow" x="-10%" y="-15%" width="120%" height="135%">
      <feDropShadow dx="0" dy="12" stdDeviation="16" flood-color="#3e3027" flood-opacity=".2"/>
    </filter>
    <filter id="paper-shadow" x="-10%" y="-10%" width="120%" height="125%">
      <feDropShadow dx="0" dy="5" stdDeviation="9" flood-color="#3e3027" flood-opacity=".1"/>
    </filter>
  </defs>

  <rect width="768" height="432" fill="#e8e1d7"/>
  <circle cx="708" cy="52" r="83" fill="#da7756" fill-opacity=".12"/>
  <circle cx="52" cy="386" r="105" fill="#c89d78" fill-opacity=".13"/>

  <g filter="url(#window-shadow)">
    <rect x="22" y="20" width="724" height="392" rx="15" fill="#f5f3ee" stroke="#cfc5b8"/>
    <path d="M37 20h694a15 15 0 0 1 15 15v28H22V35a15 15 0 0 1 15-15z" fill="#ebe7df"/>
    <circle cx="44" cy="41" r="5" fill="#d05a4c"/>
    <circle cx="62" cy="41" r="5" fill="#c99a34"/>
    <circle cx="80" cy="41" r="5" fill="#369666"/>
    <text x="384" y="45" text-anchor="middle" fill="#746b62" font-family="DejaVu Sans, sans-serif" font-size="10">Claude Paper  •  Reading View</text>

    <rect x="22" y="63" width="46" height="349" fill="#e5dfd6"/>
    <rect x="68" y="63" width="154" height="349" fill="#ebe7df"/>
    <line x1="222" y1="63" x2="222" y2="412" stroke="#d9d1c6"/>

    <g fill="none" stroke="#746b62" stroke-width="1.4" stroke-linecap="round">
      <rect x="38" y="87" width="14" height="17" rx="2"/>
      <path d="M41 92h8M41 96h8"/>
      <circle cx="45" cy="132" r="7"/>
      <path d="M50 137l5 5"/>
      <path d="M38 174h14M45 167v14"/>
    </g>

    <text x="87" y="92" fill="#1d1b16" font-family="DejaVu Sans, sans-serif" font-size="11" font-weight="700" letter-spacing="1.1">CLAUDE PAPER</text>
    <text x="87" y="120" fill="#9d948a" font-family="DejaVu Sans, sans-serif" font-size="8" letter-spacing="1">VAULT</text>
    <rect x="79" y="132" width="128" height="25" rx="6" fill="#da7756" fill-opacity=".13"/>
    <circle cx="91" cy="144.5" r="2.6" fill="#da7756"/>
    <text x="101" y="148" fill="#bd5f41" font-family="DejaVu Sans, sans-serif" font-size="9.5" font-weight="700">Welcome</text>
    <text x="101" y="178" fill="#746b62" font-family="DejaVu Sans, sans-serif" font-size="9.5">Ideas</text>
    <text x="101" y="203" fill="#746b62" font-family="DejaVu Sans, sans-serif" font-size="9.5">Reading notes</text>
    <text x="101" y="228" fill="#746b62" font-family="DejaVu Sans, sans-serif" font-size="9.5">Daily journal</text>
    <text x="101" y="253" fill="#746b62" font-family="DejaVu Sans, sans-serif" font-size="9.5">Archive</text>
    <text x="87" y="388" fill="#9d948a" font-family="DejaVu Sans, sans-serif" font-size="8">Law-Of-Cycles</text>

    <rect x="248" y="84" width="472" height="304" rx="10" fill="#fbfaf7" stroke="#ded7cd" filter="url(#paper-shadow)"/>
    <text x="284" y="127" fill="#1d1b16" font-family="DejaVu Sans, sans-serif" font-size="25" font-weight="700" letter-spacing="-.6">A warmer place to think</text>
    <line x1="284" y1="143" x2="683" y2="143" stroke="#d9d1c6"/>
    <rect x="284" y="165" width="3" height="27" rx="1.5" fill="#da7756"/>
    <text x="299" y="185" fill="#1d1b16" font-family="DejaVu Sans, sans-serif" font-size="17" font-weight="700">Typography with a clear hierarchy</text>

    <text x="284" y="218" fill="#5f574f" font-family="DejaVu Serif, serif" font-size="11.5">Long-form notes deserve calm rhythm, generous spacing, and</text>
    <text x="284" y="237" fill="#5f574f" font-family="DejaVu Serif, serif" font-size="11.5">an English face with</text>
    <text x="410" y="237" fill="#c86546" font-family="DejaVu Serif, serif" font-size="11.5" font-style="italic">genuine italic emphasis.</text>

    <rect x="284" y="260" width="399" height="53" rx="7" fill="#eeeae2" stroke="#d9d1c6"/>
    <text x="299" y="282" fill="#8563ab" font-family="DejaVu Sans Mono, monospace" font-size="10">const</text>
    <text x="336" y="282" fill="#4177b4" font-family="DejaVu Sans Mono, monospace" font-size="10">voice</text>
    <text x="369" y="282" fill="#746b62" font-family="DejaVu Sans Mono, monospace" font-size="10">=</text>
    <text x="384" y="282" fill="#369666" font-family="DejaVu Sans Mono, monospace" font-size="10">"warm, precise, readable"</text>
    <text x="299" y="300" fill="#9d948a" font-family="DejaVu Sans Mono, monospace" font-size="8.5">// SF Mono, Cascadia Mono, or Consolas</text>

    <rect x="284" y="335" width="61" height="20" rx="10" fill="#da7756" fill-opacity=".13" stroke="#da7756" stroke-opacity=".35"/>
    <text x="314.5" y="348.5" text-anchor="middle" fill="#bd5f41" font-family="DejaVu Sans, sans-serif" font-size="8.5" font-weight="700">#writing</text>
    <rect x="353" y="335" width="79" height="20" rx="10" fill="#da7756" fill-opacity=".13" stroke="#da7756" stroke-opacity=".35"/>
    <text x="392.5" y="348.5" text-anchor="middle" fill="#bd5f41" font-family="DejaVu Sans, sans-serif" font-size="8.5" font-weight="700">#bilingual</text>
  </g>
</svg>
