<svg xmlns="http://www.w3.org/2000/svg" width="512" height="288" viewBox="0 0 512 288">
  <defs>
    <linearGradient id="paper" x1="0" x2="1">
      <stop offset="0" stop-color="#f5f3ee"/>
      <stop offset="1" stop-color="#eeeae2"/>
    </linearGradient>
    <filter id="shadow" x="-20%" y="-20%" width="140%" height="140%">
      <feDropShadow dx="0" dy="5" stdDeviation="8" flood-color="#271d18" flood-opacity=".18"/>
    </filter>
  </defs>

  <rect width="512" height="288" rx="18" fill="#181512"/>
  <rect x="14" y="14" width="484" height="260" rx="12" fill="#1c1916" stroke="#3b332d"/>

  <rect x="14" y="14" width="118" height="260" rx="12" fill="#181512"/>
  <circle cx="31" cy="31" r="4" fill="#e59a73"/>
  <circle cx="45" cy="31" r="4" fill="#d8b85d"/>
  <circle cx="59" cy="31" r="4" fill="#5abe85"/>
  <text x="28" y="61" fill="#e9e3d8" font-family="DejaVu Sans, sans-serif" font-size="10" font-weight="700">CLAUDE PAPER</text>
  <rect x="27" y="76" width="84" height="18" rx="5" fill="#e59a73" fill-opacity=".14"/>
  <text x="36" y="88.5" fill="#e59a73" font-family="DejaVu Sans, sans-serif" font-size="8">Writing</text>
  <text x="36" y="111" fill="#b6aea4" font-family="DejaVu Sans, sans-serif" font-size="8">Research</text>
  <text x="36" y="132" fill="#b6aea4" font-family="DejaVu Sans, sans-serif" font-size="8">Daily notes</text>
  <text x="36" y="153" fill="#b6aea4" font-family="DejaVu Sans, sans-serif" font-size="8">Archive</text>

  <rect x="146" y="31" width="334" height="226" rx="9" fill="url(#paper)" filter="url(#shadow)"/>
  <text x="172" y="68" fill="#1d1b16" font-family="DejaVu Sans, sans-serif" font-size="21" font-weight="700">A warmer place to think</text>
  <rect x="172" y="80" width="282" height="1" fill="#d9d1c6"/>

  <rect x="172" y="100" width="3" height="22" rx="1.5" fill="#da7756"/>
  <text x="184" y="116" fill="#1d1b16" font-family="DejaVu Sans, sans-serif" font-size="16" font-weight="700">Clear Markdown hierarchy</text>

  <text x="172" y="143" fill="#5f574f" font-family="DejaVu Serif, serif" font-size="10">Elegant typography makes long-form notes calm and readable.</text>
  <text x="172" y="160" fill="#c86546" font-family="DejaVu Serif, serif" font-size="10" font-style="italic">Italic emphasis feels considered</text>
  <text x="336" y="160" fill="#5f574f" font-family="DejaVu Serif, serif" font-size="10">while code stays precise.</text>

  <rect x="172" y="177" width="282" height="42" rx="7" fill="#eeeae2" stroke="#d9d1c6"/>
  <text x="185" y="196" fill="#8563ab" font-family="DejaVu Sans Mono, monospace" font-size="9">const</text>
  <text x="218" y="196" fill="#4177b4" font-family="DejaVu Sans Mono, monospace" font-size="9">theme</text>
  <text x="253" y="196" fill="#746b62" font-family="DejaVu Sans Mono, monospace" font-size="9">=</text>
  <text x="266" y="196" fill="#369666" font-family="DejaVu Sans Mono, monospace" font-size="9">"Claude Paper"</text>
  <text x="185" y="209" fill="#9d948a" font-family="DejaVu Sans Mono, monospace" font-size="8">// light and dark, designed together</text>

  <rect x="172" y="234" width="55" height="14" rx="7" fill="#da7756" fill-opacity=".13" stroke="#da7756" stroke-opacity=".35"/>
  <text x="183" y="243.7" fill="#c86546" font-family="DejaVu Sans, sans-serif" font-size="7" font-weight="700">#writing</text>
  <text x="446" y="247" text-anchor="end" fill="#9d948a" font-family="DejaVu Sans, sans-serif" font-size="7">Law-Of-Cycles</text>
</svg>
